<?xml version="1.0" encoding="UTF-8"?>
<svg xmlns="http://www.w3.org/2000/svg" xmlns:xlink="http://www.w3.org/1999/xlink" width="1609pt" height="1086pt" viewBox="0 0 1609 1086" version="1.1">
<defs>
<clipPath id="clip1">
  <path d="M 1532 1011.558594 L 1586.644531 1011.558594 L 1586.644531 1086 L 1532 1086 Z M 1532 1011.558594 "/>
</clipPath>
</defs>
<g id="surface1">
<path style=" stroke:none;fill-rule:nonzero;fill:rgb(35.686275%,25.490196%,62.745098%);fill-opacity:1;" d="M 1011.871094 353.839844 C 1006.671875 140.636719 966.121094 26.761719 966.121094 26.761719 C 890.714844 171.707031 781.363281 253.851562 770.21875 261.984375 C 774.480469 289.902344 776.863281 321.019531 776.863281 353.839844 C 776.863281 386.65625 774.480469 417.777344 770.21875 445.695312 C 781.363281 453.828125 890.714844 535.96875 966.121094 680.917969 C 966.121094 680.917969 1006.671875 567.039062 1011.871094 353.839844 "/>
<path style=" stroke:none;fill-rule:nonzero;fill:rgb(41.176471%,24.705882%,62.745098%);fill-opacity:1;" d="M 926.789062 353.839844 C 922.378906 172.949219 887.976562 76.328125 887.976562 76.328125 C 823.996094 199.3125 747.332031 269.003906 737.878906 275.902344 C 741.492188 299.589844 743.511719 325.992188 743.511719 353.839844 C 743.511719 381.683594 741.492188 408.085938 737.878906 431.773438 C 747.332031 438.671875 823.996094 508.367188 887.976562 631.347656 C 887.976562 631.347656 922.378906 534.726562 926.789062 353.839844 "/>
<path style=" stroke:none;fill-rule:nonzero;fill:rgb(47.058824%,23.529412%,62.745098%);fill-opacity:1;" d="M 849.679688 353.839844 C 845.269531 172.949219 816.582031 119.835938 816.582031 119.835938 C 776.035156 217.601562 717.035156 269.003906 707.582031 275.902344 C 711.195312 299.589844 713.214844 325.992188 713.214844 353.839844 C 713.214844 381.683594 711.195312 408.085938 707.582031 431.773438 C 717.035156 438.671875 776.035156 490.078125 816.582031 587.839844 C 816.582031 587.839844 845.269531 534.726562 849.679688 353.839844 "/>
<path style=" stroke:none;fill-rule:nonzero;fill:rgb(58.823529%,21.568627%,62.352941%);fill-opacity:1;" d="M 778.628906 353.839844 C 777.765625 207.023438 756.628906 155.71875 756.628906 155.71875 C 731.675781 226.4375 686.671875 281.164062 677.214844 288.066406 C 682.464844 320.382812 682.117188 353.839844 682.117188 353.839844 C 682.117188 353.839844 682.464844 387.292969 677.214844 419.609375 C 686.671875 426.515625 731.675781 481.238281 756.628906 551.960938 C 756.628906 551.960938 777.765625 500.652344 778.628906 353.839844 "/>
<path style=" stroke:none;fill-rule:nonzero;fill:rgb(64.705882%,20.392157%,61.960784%);fill-opacity:1;" d="M 729.074219 353.839844 C 720.585938 209.800781 706.550781 187.441406 706.550781 187.441406 C 693.554688 235.625 654.699219 289.582031 646.339844 295.679688 C 650.976562 324.257812 650.671875 353.839844 650.671875 353.839844 C 650.671875 353.839844 650.976562 383.417969 646.339844 411.996094 C 654.699219 418.097656 693.554688 472.050781 706.550781 520.238281 C 706.550781 520.238281 720.585938 497.878906 729.074219 353.839844 "/>
<path style=" stroke:none;fill-rule:nonzero;fill:rgb(70.588235%,19.215686%,61.960784%);fill-opacity:1;" d="M 678.5625 353.839844 C 671.546875 229.558594 658.726562 216.714844 658.726562 216.714844 C 648.015625 256.421875 623.511719 300.882812 616.621094 305.914062 C 620.445312 329.460938 620.191406 353.839844 620.191406 353.839844 C 620.191406 353.839844 620.445312 378.214844 616.621094 401.761719 C 623.511719 406.792969 648.015625 451.253906 658.726562 490.960938 C 658.726562 490.960938 671.546875 478.121094 678.5625 353.839844 "/>
<path style=" stroke:none;fill-rule:nonzero;fill:rgb(76.470588%,18.039216%,61.960784%);fill-opacity:1;" d="M 634.117188 353.839844 C 631.347656 263.355469 618.523438 242.210938 618.523438 242.210938 C 614.019531 273.238281 591.214844 311.070312 585.648438 315.132812 C 588.738281 334.152344 588.53125 353.839844 588.53125 353.839844 C 588.53125 353.839844 588.738281 373.523438 585.648438 392.546875 C 591.214844 396.605469 614.019531 434.4375 618.523438 465.464844 C 618.523438 465.464844 631.347656 444.320312 634.117188 353.839844 "/>
<path style=" stroke:none;fill-rule:nonzero;fill:rgb(81.960784%,16.470588%,61.568627%);fill-opacity:1;" d="M 578.234375 266.046875 C 576.847656 285.71875 561.34375 318.839844 557.09375 321.945312 C 559.453125 336.472656 558.925781 353.839844 558.925781 353.839844 C 558.925781 353.839844 559.453125 371.207031 557.09375 385.730469 C 561.34375 388.835938 576.847656 421.957031 578.234375 441.628906 C 578.234375 441.628906 592.011719 407.917969 590.539062 353.839844 C 592.011719 299.757812 578.234375 266.046875 578.234375 266.046875 "/>
<path style=" stroke:none;fill-rule:nonzero;fill:rgb(87.843137%,15.294118%,61.568627%);fill-opacity:1;" d="M 538.902344 291.875 C 538.554688 305.132812 533.441406 320.644531 527.515625 330.414062 C 529.246094 341.082031 528.859375 353.839844 528.859375 353.839844 C 528.859375 353.839844 529.246094 366.59375 527.515625 377.261719 C 533.441406 387.03125 538.554688 402.542969 538.902344 415.804688 C 538.902344 415.804688 547.828125 393.570312 547.828125 353.839844 C 547.828125 314.105469 538.902344 291.875 538.902344 291.875 "/>
<path style=" stroke:none;fill-rule:nonzero;fill:rgb(93.72549%,14.117647%,61.176471%);fill-opacity:1;" d="M 511.253906 316.621094 C 511.042969 324.582031 507.976562 333.902344 504.414062 339.769531 C 505.457031 346.179688 505.222656 353.839844 505.222656 353.839844 C 505.222656 353.839844 503.175781 361.535156 504.414062 367.910156 C 505.726562 374.644531 511.042969 383.09375 511.253906 391.058594 C 511.253906 391.058594 516.613281 377.703125 516.613281 353.839844 C 516.613281 329.972656 511.253906 316.621094 511.253906 316.621094 "/>
<path style=" stroke:none;fill-rule:nonzero;fill:rgb(13.72549%,12.156863%,12.54902%);fill-opacity:1;" d="M 21.90625 1083.410156 L 21.90625 1056.453125 C 23.628906 1061.425781 29.804688 1064.96875 38.210938 1064.96875 C 45.394531 1064.96875 51.476562 1062.433594 56.332031 1057.371094 C 61.300781 1052.199219 63.726562 1045.925781 63.726562 1038.328125 C 63.726562 1030.730469 61.300781 1024.445312 56.332031 1019.378906 C 51.476562 1014.210938 45.394531 1011.675781 38.210938 1011.675781 C 29.804688 1011.675781 23.628906 1015.230469 21.90625 1020.1875 L 21.90625 1012.789062 L 9.75 1012.789062 L 9.75 1083.410156 Z M 36.589844 1053.921875 C 32.230469 1053.921875 28.480469 1052.410156 25.445312 1049.46875 C 22.515625 1046.535156 20.992188 1042.785156 20.992188 1038.328125 C 20.992188 1033.871094 22.515625 1030.121094 25.445312 1027.175781 C 28.480469 1024.246094 32.230469 1022.722656 36.589844 1022.722656 C 40.941406 1022.722656 44.480469 1024.246094 47.316406 1027.175781 C 50.257812 1030.121094 51.675781 1033.871094 51.675781 1038.328125 C 51.675781 1042.785156 50.257812 1046.535156 47.316406 1049.46875 C 44.480469 1052.410156 40.941406 1053.921875 36.589844 1053.921875 Z M 36.589844 1053.921875 "/>
<path style=" stroke:none;fill-rule:nonzero;fill:rgb(13.72549%,12.156863%,12.54902%);fill-opacity:1;" d="M 100.289062 1063.855469 L 100.289062 1037.003906 C 100.289062 1028.597656 105.660156 1023.332031 114.0625 1023.332031 C 115.890625 1023.332031 117.613281 1023.53125 119.128906 1023.835938 L 119.128906 1012.085938 C 118.117188 1011.886719 116.898438 1011.78125 115.480469 1011.78125 C 108.296875 1011.78125 102.714844 1015.03125 100.289062 1020.386719 L 100.289062 1012.789062 L 88.242188 1012.789062 L 88.242188 1063.855469 Z M 100.289062 1063.855469 "/>
<path style=" stroke:none;fill-rule:nonzero;fill:rgb(13.72549%,12.156863%,12.54902%);fill-opacity:1;" d="M 146.472656 1057.570312 C 151.84375 1062.738281 158.429688 1065.378906 166.226562 1065.378906 C 174.019531 1065.378906 180.609375 1062.738281 185.976562 1057.570312 C 191.34375 1052.410156 194.074219 1045.925781 194.074219 1038.328125 C 194.074219 1030.730469 191.34375 1024.246094 185.976562 1019.074219 C 180.609375 1013.902344 174.019531 1011.277344 166.226562 1011.277344 C 158.429688 1011.277344 151.84375 1013.902344 146.472656 1019.074219 C 141.105469 1024.246094 138.375 1030.730469 138.375 1038.328125 C 138.375 1045.925781 141.105469 1052.410156 146.472656 1057.570312 Z M 166.226562 1054.332031 C 161.664062 1054.332031 157.914062 1052.808594 154.878906 1049.773438 C 151.949219 1046.628906 150.425781 1042.890625 150.425781 1038.328125 C 150.425781 1033.765625 151.949219 1030.015625 154.878906 1026.976562 C 157.914062 1023.835938 161.664062 1022.324219 166.226562 1022.324219 C 170.679688 1022.324219 174.429688 1023.835938 177.464844 1026.976562 C 180.503906 1030.015625 182.027344 1033.765625 182.027344 1038.328125 C 182.027344 1042.890625 180.503906 1046.628906 177.464844 1049.773438 C 174.429688 1052.808594 170.679688 1054.332031 166.226562 1054.332031 Z M 166.226562 1054.332031 "/>
<path style=" stroke:none;fill-rule:nonzero;fill:rgb(13.72549%,12.156863%,12.54902%);fill-opacity:1;" d="M 234.996094 1063.855469 L 234.996094 1023.835938 L 244.609375 1023.835938 L 244.609375 1012.789062 L 234.996094 1012.789062 L 234.996094 1009.355469 C 234.996094 1004.183594 237.117188 1002.15625 241.679688 1002.15625 C 243.800781 1002.15625 245.417969 1002.367188 246.332031 1002.660156 L 246.332031 992.234375 C 244.820312 991.929688 243.097656 991.824219 241.070312 991.824219 C 235.289062 991.824219 231.140625 992.941406 228.410156 995.167969 C 224.460938 998.308594 222.84375 1002.460938 222.84375 1010.257812 L 222.84375 1012.789062 L 214.53125 1012.789062 L 214.53125 1023.835938 L 222.84375 1023.835938 L 222.84375 1063.855469 Z M 234.996094 1063.855469 "/>
<path style=" stroke:none;fill-rule:nonzero;fill:rgb(13.72549%,12.156863%,12.54902%);fill-opacity:1;" d="M 264.164062 1038.832031 C 264.164062 1046.828125 266.589844 1053.3125 271.558594 1058.179688 C 276.519531 1062.9375 283.105469 1065.378906 291.097656 1065.378906 C 298.695312 1065.378906 304.976562 1063.65625 309.9375 1060.207031 L 309.9375 1048.855469 C 305.679688 1052.808594 299.609375 1054.730469 291.601562 1054.730469 C 282.589844 1054.730469 276.625 1049.574219 276.214844 1041.46875 L 315.304688 1041.46875 C 315.410156 1040.144531 315.503906 1038.632812 315.503906 1037.109375 C 315.503906 1029.921875 313.183594 1023.835938 308.519531 1018.96875 C 303.957031 1014.007812 297.992188 1011.582031 290.59375 1011.582031 C 282.894531 1011.582031 276.519531 1014.007812 271.558594 1018.96875 C 266.589844 1023.835938 264.164062 1030.320312 264.164062 1038.328125 Z M 276.519531 1032.851562 C 276.71875 1029.816406 278.136719 1027.28125 280.867188 1025.160156 C 283.609375 1023.027344 286.84375 1021.914062 290.59375 1021.914062 C 294.136719 1021.914062 297.078125 1023.027344 299.503906 1025.160156 C 301.941406 1027.28125 303.148438 1029.921875 303.148438 1032.851562 Z M 276.519531 1032.851562 "/>
<path style=" stroke:none;fill-rule:nonzero;fill:rgb(13.72549%,12.156863%,12.54902%);fill-opacity:1;" d="M 337.082031 1059.703125 C 342.449219 1063.347656 348.625 1065.167969 355.824219 1065.167969 C 362.808594 1065.167969 367.96875 1063.65625 371.308594 1060.617188 C 374.660156 1057.476562 376.371094 1053.828125 376.371094 1049.46875 C 376.371094 1044.507812 374.753906 1040.953125 370.710938 1038.222656 C 368.777344 1036.910156 366.960938 1035.796875 365.433594 1035.078125 C 363.921875 1034.375 361.695312 1033.355469 358.753906 1032.242188 C 357.230469 1031.632812 355.519531 1031.035156 354.300781 1030.625 C 353.1875 1030.121094 352.988281 1029.921875 352.167969 1029.511719 C 350.855469 1028.703125 350.148438 1027.691406 350.148438 1026.273438 C 350.148438 1023.332031 352.578125 1021.914062 357.535156 1021.914062 C 362.292969 1021.914062 366.761719 1023.226562 370.804688 1025.757812 L 370.804688 1014.726562 C 367.160156 1012.390625 362.597656 1011.277344 357.03125 1011.277344 C 351.769531 1011.277344 347.40625 1012.589844 343.867188 1015.230469 C 340.421875 1017.855469 338.699219 1021.503906 338.699219 1026.0625 C 338.699219 1032.453125 342.34375 1037.308594 349.539062 1040.449219 C 351.875 1041.363281 356.117188 1043.089844 358.144531 1044.003906 C 359.257812 1044.402344 360.277344 1044.90625 361.390625 1045.515625 C 363.710938 1046.734375 364.625 1048.046875 364.625 1049.667969 C 364.625 1052.808594 361.390625 1054.53125 356.023438 1054.53125 C 348.425781 1054.53125 342.039062 1052.304688 337.082031 1047.742188 Z M 337.082031 1059.703125 "/>
<path style=" stroke:none;fill-rule:nonzero;fill:rgb(13.72549%,12.156863%,12.54902%);fill-opacity:1;" d="M 397.949219 1059.703125 C 403.316406 1063.347656 409.496094 1065.167969 416.691406 1065.167969 C 423.679688 1065.167969 428.835938 1063.65625 432.175781 1060.617188 C 435.527344 1057.476562 437.242188 1053.828125 437.242188 1049.46875 C 437.242188 1044.507812 435.621094 1040.953125 431.578125 1038.222656 C 429.644531 1036.910156 427.828125 1035.796875 426.304688 1035.078125 C 424.792969 1034.375 422.566406 1033.355469 419.621094 1032.242188 C 418.097656 1031.632812 416.386719 1031.035156 415.167969 1030.625 C 414.054688 1030.121094 413.855469 1029.921875 413.035156 1029.511719 C 411.722656 1028.703125 411.019531 1027.691406 411.019531 1026.273438 C 411.019531 1023.332031 413.445312 1021.914062 418.402344 1021.914062 C 423.164062 1021.914062 427.628906 1023.226562 431.671875 1025.757812 L 431.671875 1014.726562 C 428.027344 1012.390625 423.46875 1011.277344 417.898438 1011.277344 C 412.636719 1011.277344 408.277344 1012.589844 404.734375 1015.230469 C 401.289062 1017.855469 399.566406 1021.503906 399.566406 1026.0625 C 399.566406 1032.453125 403.210938 1037.308594 410.410156 1040.449219 C 412.742188 1041.363281 416.984375 1043.089844 419.011719 1044.003906 C 420.125 1044.402344 421.148438 1044.90625 422.261719 1045.515625 C 424.582031 1046.734375 425.496094 1048.046875 425.496094 1049.667969 C 425.496094 1052.808594 422.261719 1054.53125 416.890625 1054.53125 C 409.296875 1054.53125 402.90625 1052.304688 397.949219 1047.742188 Z M 397.949219 1059.703125 "/>
<path style=" stroke:none;fill-rule:nonzero;fill:rgb(13.72549%,12.156863%,12.54902%);fill-opacity:1;" d="M 466.816406 1006.820312 C 470.765625 1006.820312 474.011719 1003.679688 474.011719 999.621094 C 474.011719 995.578125 470.765625 992.433594 466.816406 992.433594 C 462.773438 992.433594 459.527344 995.578125 459.527344 999.621094 C 459.527344 1003.679688 462.773438 1006.820312 466.816406 1006.820312 Z M 472.898438 1063.855469 L 472.898438 1012.789062 L 460.746094 1012.789062 L 460.746094 1063.855469 Z M 472.898438 1063.855469 "/>
<path style=" stroke:none;fill-rule:nonzero;fill:rgb(13.72549%,12.156863%,12.54902%);fill-opacity:1;" d="M 505.609375 1057.570312 C 510.976562 1062.738281 517.566406 1065.378906 525.359375 1065.378906 C 533.15625 1065.378906 539.742188 1062.738281 545.113281 1057.570312 C 550.480469 1052.410156 553.210938 1045.925781 553.210938 1038.328125 C 553.210938 1030.730469 550.480469 1024.246094 545.113281 1019.074219 C 539.742188 1013.902344 533.15625 1011.277344 525.359375 1011.277344 C 517.566406 1011.277344 510.976562 1013.902344 505.609375 1019.074219 C 500.242188 1024.246094 497.511719 1030.730469 497.511719 1038.328125 C 497.511719 1045.925781 500.242188 1052.410156 505.609375 1057.570312 Z M 525.359375 1054.332031 C 520.800781 1054.332031 517.050781 1052.808594 514.015625 1049.773438 C 511.082031 1046.628906 509.558594 1042.890625 509.558594 1038.328125 C 509.558594 1033.765625 511.082031 1030.015625 514.015625 1026.976562 C 517.050781 1023.835938 520.800781 1022.324219 525.359375 1022.324219 C 529.816406 1022.324219 533.566406 1023.835938 536.601562 1026.976562 C 539.636719 1030.015625 541.160156 1033.765625 541.160156 1038.328125 C 541.160156 1042.890625 539.636719 1046.628906 536.601562 1049.773438 C 533.566406 1052.808594 529.816406 1054.332031 525.359375 1054.332031 Z M 525.359375 1054.332031 "/>
<path style=" stroke:none;fill-rule:nonzero;fill:rgb(13.72549%,12.156863%,12.54902%);fill-opacity:1;" d="M 589.972656 1063.855469 L 589.972656 1034.46875 C 589.972656 1027.480469 594.933594 1022.628906 601.824219 1022.628906 C 608.613281 1022.628906 612.65625 1026.976562 612.65625 1033.964844 L 612.65625 1063.855469 L 624.8125 1063.855469 L 624.8125 1032.242188 C 624.8125 1019.578125 617.625 1011.78125 605.46875 1011.78125 C 598.179688 1011.78125 592.402344 1015.125 589.972656 1020.09375 L 589.972656 1012.789062 L 577.925781 1012.789062 L 577.925781 1063.855469 Z M 589.972656 1063.855469 "/>
<path style=" stroke:none;fill-rule:nonzero;fill:rgb(13.72549%,12.156863%,12.54902%);fill-opacity:1;" d="M 674.441406 1011.675781 C 667.253906 1011.675781 661.171875 1014.210938 656.210938 1019.378906 C 651.347656 1024.445312 648.921875 1030.730469 648.921875 1038.328125 C 648.921875 1045.925781 651.347656 1052.199219 656.210938 1057.371094 C 661.171875 1062.433594 667.253906 1064.96875 674.441406 1064.96875 C 682.84375 1064.96875 689.023438 1061.425781 690.746094 1056.453125 L 690.746094 1063.855469 L 702.898438 1063.855469 L 702.898438 1012.789062 L 690.746094 1012.789062 L 690.746094 1020.1875 C 689.023438 1015.230469 682.84375 1011.675781 674.441406 1011.675781 Z M 676.058594 1053.921875 C 671.707031 1053.921875 668.15625 1052.410156 665.226562 1049.46875 C 662.390625 1046.535156 660.972656 1042.785156 660.972656 1038.328125 C 660.972656 1033.871094 662.390625 1030.121094 665.226562 1027.175781 C 668.15625 1024.246094 671.707031 1022.722656 676.058594 1022.722656 C 680.417969 1022.722656 684.167969 1024.246094 687.097656 1027.175781 C 690.136719 1030.121094 691.660156 1033.871094 691.660156 1038.328125 C 691.660156 1042.785156 690.136719 1046.535156 687.097656 1049.46875 C 684.167969 1052.410156 680.417969 1053.921875 676.058594 1053.921875 Z M 676.058594 1053.921875 "/>
<path style=" stroke:none;fill-rule:nonzero;fill:rgb(13.72549%,12.156863%,12.54902%);fill-opacity:1;" d="M 741.796875 1063.855469 L 741.796875 993.246094 L 729.640625 993.246094 L 729.640625 1063.855469 Z M 741.796875 1063.855469 "/>
<path style=" stroke:none;fill-rule:nonzero;fill:rgb(13.72549%,12.156863%,12.54902%);fill-opacity:1;" d="M 850.667969 1011.171875 C 842.769531 1011.171875 836.179688 1013.703125 830.8125 1018.875 C 825.445312 1024.035156 822.816406 1030.425781 822.816406 1038.222656 C 822.816406 1046.019531 825.445312 1052.410156 830.8125 1057.570312 C 836.179688 1062.738281 842.769531 1065.273438 850.667969 1065.273438 C 857.351562 1065.273438 862.824219 1063.550781 867.078125 1060.101562 L 867.078125 1047.953125 C 862.824219 1052.105469 857.550781 1054.226562 851.371094 1054.226562 C 846.613281 1054.226562 842.664062 1052.714844 839.519531 1049.667969 C 836.390625 1046.628906 834.867188 1042.785156 834.867188 1038.222656 C 834.867188 1033.660156 836.390625 1029.816406 839.519531 1026.777344 C 842.664062 1023.742188 846.613281 1022.21875 851.371094 1022.21875 C 857.457031 1022.21875 862.71875 1024.339844 867.078125 1028.503906 L 867.078125 1016.34375 C 862.71875 1012.894531 857.246094 1011.171875 850.667969 1011.171875 Z M 850.667969 1011.171875 "/>
<path style=" stroke:none;fill-rule:nonzero;fill:rgb(13.72549%,12.156863%,12.54902%);fill-opacity:1;" d="M 915.484375 1011.675781 C 908.296875 1011.675781 902.214844 1014.210938 897.257812 1019.378906 C 892.390625 1024.445312 889.964844 1030.730469 889.964844 1038.328125 C 889.964844 1045.925781 892.390625 1052.199219 897.257812 1057.371094 C 902.214844 1062.433594 908.296875 1064.96875 915.484375 1064.96875 C 923.886719 1064.96875 930.066406 1061.425781 931.789062 1056.453125 L 931.789062 1063.855469 L 943.945312 1063.855469 L 943.945312 1012.789062 L 931.789062 1012.789062 L 931.789062 1020.1875 C 930.066406 1015.230469 923.886719 1011.675781 915.484375 1011.675781 Z M 917.101562 1053.921875 C 912.753906 1053.921875 909.203125 1052.410156 906.269531 1049.46875 C 903.433594 1046.535156 902.015625 1042.785156 902.015625 1038.328125 C 902.015625 1033.871094 903.433594 1030.121094 906.269531 1027.175781 C 909.203125 1024.246094 912.753906 1022.722656 917.101562 1022.722656 C 921.460938 1022.722656 925.214844 1024.246094 928.144531 1027.175781 C 931.179688 1030.121094 932.703125 1033.871094 932.703125 1038.328125 C 932.703125 1042.785156 931.179688 1046.535156 928.144531 1049.46875 C 925.214844 1052.410156 921.460938 1053.921875 917.101562 1053.921875 Z M 917.101562 1053.921875 "/>
<path style=" stroke:none;fill-rule:nonzero;fill:rgb(13.72549%,12.156863%,12.54902%);fill-opacity:1;" d="M 982.734375 1063.855469 L 982.734375 1037.003906 C 982.734375 1028.597656 988.101562 1023.332031 996.507812 1023.332031 C 998.335938 1023.332031 1000.058594 1023.53125 1001.570312 1023.835938 L 1001.570312 1012.085938 C 1000.5625 1011.886719 999.34375 1011.78125 997.925781 1011.78125 C 990.738281 1011.78125 985.160156 1015.03125 982.734375 1020.386719 L 982.734375 1012.789062 L 970.683594 1012.789062 L 970.683594 1063.855469 Z M 982.734375 1063.855469 "/>
<path style=" stroke:none;fill-rule:nonzero;fill:rgb(13.72549%,12.156863%,12.54902%);fill-opacity:1;" d="M 1076.519531 1059.703125 C 1081.886719 1063.347656 1088.066406 1065.167969 1095.261719 1065.167969 C 1102.246094 1065.167969 1107.40625 1063.65625 1110.746094 1060.617188 C 1114.097656 1057.476562 1115.808594 1053.828125 1115.808594 1049.46875 C 1115.808594 1044.507812 1114.191406 1040.953125 1110.148438 1038.222656 C 1108.214844 1036.910156 1106.398438 1035.796875 1104.875 1035.078125 C 1103.359375 1034.375 1101.132812 1033.355469 1098.191406 1032.242188 C 1096.667969 1031.632812 1094.957031 1031.035156 1093.738281 1030.625 C 1092.625 1030.121094 1092.425781 1029.921875 1091.605469 1029.511719 C 1090.292969 1028.703125 1089.589844 1027.691406 1089.589844 1026.273438 C 1089.589844 1023.332031 1092.015625 1021.914062 1096.972656 1021.914062 C 1101.730469 1021.914062 1106.199219 1023.226562 1110.242188 1025.757812 L 1110.242188 1014.726562 C 1106.597656 1012.390625 1102.035156 1011.277344 1096.46875 1011.277344 C 1091.207031 1011.277344 1086.84375 1012.589844 1083.304688 1015.230469 C 1079.859375 1017.855469 1078.136719 1021.503906 1078.136719 1026.0625 C 1078.136719 1032.453125 1081.78125 1037.308594 1088.980469 1040.449219 C 1091.3125 1041.363281 1095.554688 1043.089844 1097.582031 1044.003906 C 1098.695312 1044.402344 1099.714844 1044.90625 1100.828125 1045.515625 C 1103.148438 1046.734375 1104.066406 1048.046875 1104.066406 1049.667969 C 1104.066406 1052.808594 1100.828125 1054.53125 1095.460938 1054.53125 C 1087.863281 1054.53125 1081.476562 1052.304688 1076.519531 1047.742188 Z M 1076.519531 1059.703125 "/>
<path style=" stroke:none;fill-rule:nonzero;fill:rgb(13.72549%,12.156863%,12.54902%);fill-opacity:1;" d="M 1151.46875 1083.410156 L 1151.46875 1056.453125 C 1153.191406 1061.425781 1159.371094 1064.96875 1167.773438 1064.96875 C 1174.960938 1064.96875 1181.042969 1062.433594 1185.894531 1057.371094 C 1190.867188 1052.199219 1193.292969 1045.925781 1193.292969 1038.328125 C 1193.292969 1030.730469 1190.867188 1024.445312 1185.894531 1019.378906 C 1181.042969 1014.210938 1174.960938 1011.675781 1167.773438 1011.675781 C 1159.371094 1011.675781 1153.191406 1015.230469 1151.46875 1020.1875 L 1151.46875 1012.789062 L 1139.3125 1012.789062 L 1139.3125 1083.410156 Z M 1166.15625 1053.921875 C 1161.796875 1053.921875 1158.046875 1052.410156 1155.007812 1049.46875 C 1152.078125 1046.535156 1150.554688 1042.785156 1150.554688 1038.328125 C 1150.554688 1033.871094 1152.078125 1030.121094 1155.007812 1027.175781 C 1158.046875 1024.246094 1161.796875 1022.722656 1166.15625 1022.722656 C 1170.503906 1022.722656 1174.046875 1024.246094 1176.882812 1027.175781 C 1179.824219 1030.121094 1181.242188 1033.871094 1181.242188 1038.328125 C 1181.242188 1042.785156 1179.824219 1046.535156 1176.882812 1049.46875 C 1174.046875 1052.410156 1170.503906 1053.921875 1166.15625 1053.921875 Z M 1166.15625 1053.921875 "/>
<path style=" stroke:none;fill-rule:nonzero;fill:rgb(13.72549%,12.156863%,12.54902%);fill-opacity:1;" d="M 1229.855469 1063.855469 L 1229.855469 1037.003906 C 1229.855469 1028.597656 1235.222656 1023.332031 1243.628906 1023.332031 C 1245.457031 1023.332031 1247.179688 1023.53125 1248.691406 1023.835938 L 1248.691406 1012.085938 C 1247.683594 1011.886719 1246.464844 1011.78125 1245.046875 1011.78125 C 1237.859375 1011.78125 1232.28125 1015.03125 1229.855469 1020.386719 L 1229.855469 1012.789062 L 1217.804688 1012.789062 L 1217.804688 1063.855469 Z M 1229.855469 1063.855469 "/>
<path style=" stroke:none;fill-rule:nonzero;fill:rgb(13.72549%,12.156863%,12.54902%);fill-opacity:1;" d="M 1293.457031 1011.675781 C 1286.273438 1011.675781 1280.1875 1014.210938 1275.230469 1019.378906 C 1270.367188 1024.445312 1267.9375 1030.730469 1267.9375 1038.328125 C 1267.9375 1045.925781 1270.367188 1052.199219 1275.230469 1057.371094 C 1280.1875 1062.433594 1286.273438 1064.96875 1293.457031 1064.96875 C 1301.863281 1064.96875 1308.039062 1061.425781 1309.761719 1056.453125 L 1309.761719 1063.855469 L 1321.917969 1063.855469 L 1321.917969 1012.789062 L 1309.761719 1012.789062 L 1309.761719 1020.1875 C 1308.039062 1015.230469 1301.863281 1011.675781 1293.457031 1011.675781 Z M 1295.074219 1053.921875 C 1290.726562 1053.921875 1287.175781 1052.410156 1284.242188 1049.46875 C 1281.40625 1046.535156 1279.988281 1042.785156 1279.988281 1038.328125 C 1279.988281 1033.871094 1281.40625 1030.121094 1284.242188 1027.175781 C 1287.175781 1024.246094 1290.726562 1022.722656 1295.074219 1022.722656 C 1299.433594 1022.722656 1303.1875 1024.246094 1306.117188 1027.175781 C 1309.152344 1030.121094 1310.675781 1033.871094 1310.675781 1038.328125 C 1310.675781 1042.785156 1309.152344 1046.535156 1306.117188 1049.46875 C 1303.1875 1052.410156 1299.433594 1053.921875 1295.074219 1053.921875 Z M 1295.074219 1053.921875 "/>
<path style=" stroke:none;fill-rule:nonzero;fill:rgb(13.72549%,12.156863%,12.54902%);fill-opacity:1;" d="M 1356.957031 1083.503906 L 1369.3125 1083.503906 L 1399.296875 1012.789062 L 1386.835938 1012.789062 L 1371.550781 1050.078125 L 1356.652344 1012.789062 L 1344.203125 1012.789062 L 1365.160156 1064.558594 Z M 1356.957031 1083.503906 "/>
<path style=" stroke:none;fill-rule:nonzero;fill:rgb(13.72549%,12.156863%,12.54902%);fill-opacity:1;" d="M 1428.15625 1006.820312 C 1432.105469 1006.820312 1435.355469 1003.679688 1435.355469 999.621094 C 1435.355469 995.578125 1432.105469 992.433594 1428.15625 992.433594 C 1424.113281 992.433594 1420.867188 995.578125 1420.867188 999.621094 C 1420.867188 1003.679688 1424.113281 1006.820312 1428.15625 1006.820312 Z M 1434.238281 1063.855469 L 1434.238281 1012.789062 L 1422.085938 1012.789062 L 1422.085938 1063.855469 Z M 1434.238281 1063.855469 "/>
<path style=" stroke:none;fill-rule:nonzero;fill:rgb(13.72549%,12.156863%,12.54902%);fill-opacity:1;" d="M 1473.128906 1063.855469 L 1473.128906 1034.46875 C 1473.128906 1027.480469 1478.085938 1022.628906 1484.976562 1022.628906 C 1491.765625 1022.628906 1495.808594 1026.976562 1495.808594 1033.964844 L 1495.808594 1063.855469 L 1507.964844 1063.855469 L 1507.964844 1032.242188 C 1507.964844 1019.578125 1500.777344 1011.78125 1488.625 1011.78125 C 1481.332031 1011.78125 1475.554688 1015.125 1473.128906 1020.09375 L 1473.128906 1012.789062 L 1461.078125 1012.789062 L 1461.078125 1063.855469 Z M 1473.128906 1063.855469 "/>
<g clip-path="url(#clip1)" clip-rule="nonzero">
<path style=" stroke:none;fill-rule:nonzero;fill:rgb(13.72549%,12.156863%,12.54902%);fill-opacity:1;" d="M 1557.59375 1011.675781 C 1550.40625 1011.675781 1544.429688 1014.210938 1539.472656 1019.378906 C 1534.5 1024.445312 1532.074219 1030.730469 1532.074219 1038.117188 C 1532.074219 1045.515625 1534.5 1051.800781 1539.367188 1056.761719 C 1544.324219 1061.730469 1550.40625 1064.265625 1557.59375 1064.265625 C 1565.691406 1064.265625 1571.777344 1061.121094 1574.203125 1056.761719 L 1574.203125 1059.902344 C 1574.203125 1066.082031 1572.585938 1070.335938 1569.246094 1072.671875 C 1566.5 1074.6875 1562.457031 1075.707031 1557.089844 1075.707031 C 1547.875 1075.707031 1540.984375 1073.375 1536.328125 1068.8125 L 1536.328125 1080.363281 C 1541.699219 1084.21875 1549.292969 1086.144531 1558.90625 1086.144531 C 1566.300781 1086.144531 1572.480469 1084.3125 1577.34375 1080.773438 C 1581.09375 1078.042969 1583.414062 1074.792969 1584.4375 1070.949219 C 1585.550781 1067.195312 1586.054688 1061.929688 1586.054688 1055.339844 L 1586.054688 1012.789062 L 1573.898438 1012.789062 L 1573.898438 1020.1875 C 1572.175781 1015.230469 1565.996094 1011.675781 1557.59375 1011.675781 Z M 1559.210938 1053.523438 C 1554.863281 1053.523438 1551.308594 1052.105469 1548.378906 1049.160156 C 1545.542969 1046.230469 1544.125 1042.480469 1544.125 1038.117188 C 1544.125 1033.765625 1545.542969 1030.121094 1548.378906 1027.175781 C 1551.308594 1024.246094 1554.863281 1022.722656 1559.210938 1022.722656 C 1563.570312 1022.722656 1567.320312 1024.246094 1570.253906 1027.175781 C 1573.289062 1030.121094 1574.8125 1033.765625 1574.8125 1038.117188 C 1574.8125 1042.480469 1573.289062 1046.230469 1570.253906 1049.160156 C 1567.320312 1052.105469 1563.570312 1053.523438 1559.210938 1053.523438 Z M 1559.210938 1053.523438 "/>
</g>
<path style=" stroke:none;fill-rule:nonzero;fill:rgb(13.72549%,12.156863%,12.54902%);fill-opacity:1;" d="M 63.238281 942.738281 L 63.238281 857.578125 L 118.648438 913.8125 L 174.042969 857.578125 L 174.042969 942.738281 L 221.878906 942.738281 L 221.878906 747.007812 L 118.648438 850.015625 L 15.402344 747.007812 L 15.402344 942.738281 Z M 63.238281 942.738281 "/>
<path style=" stroke:none;fill-rule:nonzero;fill:rgb(13.72549%,12.156863%,12.54902%);fill-opacity:1;" d="M 333.765625 942.738281 L 345.933594 918.140625 L 423.226562 918.140625 L 435.382812 942.738281 L 488.890625 942.738281 L 384.582031 741.605469 L 280.257812 942.738281 Z M 384.582031 834.878906 L 405.925781 878.402344 L 363.222656 878.402344 Z M 384.582031 834.878906 "/>
<path style=" stroke:none;fill-rule:nonzero;fill:rgb(13.72549%,12.156863%,12.54902%);fill-opacity:1;" d="M 539.707031 930.296875 C 558.355469 940.300781 581.328125 945.445312 608.347656 945.445312 C 661.050781 945.445312 686.71875 922.464844 686.71875 885.695312 C 686.71875 871.636719 683.214844 860.554688 676.453125 852.171875 C 669.699219 843.800781 656.992188 837.035156 638.882812 831.359375 C 636.726562 830.550781 632.671875 829.472656 626.457031 827.84375 L 612.671875 824.054688 C 609.695312 822.976562 605.921875 821.628906 601.867188 819.742188 C 593.484375 816.222656 589.96875 812.167969 589.96875 807.570312 C 589.96875 800.816406 598.621094 797.300781 616.191406 797.300781 C 637.804688 797.300781 655.644531 802.164062 669.96875 812.167969 L 669.96875 764.316406 C 654.027344 755.933594 635.378906 751.605469 613.484375 751.605469 C 593.484375 751.605469 576.464844 756.472656 562.140625 766.472656 C 548.085938 776.488281 541.054688 790.265625 541.054688 807.839844 C 541.054688 832.980469 554.570312 850.824219 581.867188 860.828125 C 587.273438 862.714844 595.371094 865.421875 606.460938 868.671875 C 617.539062 871.90625 625.378906 874.613281 629.976562 877.042969 C 634.570312 879.480469 636.726562 882.179688 636.726562 885.695312 C 636.726562 894.886719 626.457031 899.484375 606.191406 899.484375 C 579.96875 899.484375 557.816406 892.730469 539.707031 878.941406 Z M 539.707031 930.296875 "/>
<path style=" stroke:none;fill-rule:nonzero;fill:rgb(13.72549%,12.156863%,12.54902%);fill-opacity:1;" d="M 896.441406 942.738281 L 896.441406 896.238281 L 811.050781 896.238281 L 900.496094 754.3125 L 744.5625 754.3125 L 744.5625 800.816406 L 818.070312 800.816406 L 726.453125 942.738281 Z M 896.441406 942.738281 "/>
<path style=" stroke:none;fill-rule:nonzero;fill:rgb(13.72549%,12.156863%,12.54902%);fill-opacity:1;" d="M 1155.894531 849.207031 C 1155.894531 822.167969 1145.628906 799.1875 1125.347656 780.261719 C 1105.082031 761.066406 1080.757812 751.605469 1051.84375 751.605469 C 1022.925781 751.605469 998.601562 761.066406 978.335938 780.261719 C 958.070312 799.457031 948.070312 822.4375 948.070312 849.207031 C 948.070312 875.964844 958.070312 898.945312 978.335938 918.140625 C 998.601562 937.0625 1022.925781 946.527344 1051.84375 946.527344 C 1080.757812 946.527344 1105.082031 937.0625 1125.347656 918.140625 C 1145.628906 898.945312 1155.894531 875.964844 1155.894531 849.207031 Z M 1000.5 849.207031 C 1000.5 835.148438 1005.636719 822.976562 1015.632812 812.976562 C 1025.632812 802.703125 1037.789062 797.570312 1051.84375 797.570312 C 1065.898438 797.570312 1078.0625 802.703125 1088.0625 812.976562 C 1098.332031 823.246094 1103.464844 835.417969 1103.464844 849.207031 C 1103.464844 862.984375 1098.332031 875.15625 1088.0625 885.425781 C 1078.0625 895.425781 1065.898438 900.5625 1051.84375 900.5625 C 1037.519531 900.5625 1025.363281 895.695312 1015.363281 885.695312 C 1005.367188 875.695312 1000.5 863.535156 1000.5 849.207031 Z M 1000.5 849.207031 "/>
<path style=" stroke:none;fill-rule:nonzero;fill:rgb(13.72549%,12.156863%,12.54902%);fill-opacity:1;" d="M 1306.421875 942.738281 L 1306.421875 800.816406 L 1356.160156 800.816406 L 1356.160156 754.3125 L 1204.269531 754.3125 L 1204.269531 800.816406 L 1255.082031 800.816406 L 1255.082031 942.738281 Z M 1306.421875 942.738281 "/>
<path style=" stroke:none;fill-rule:nonzero;fill:rgb(13.72549%,12.156863%,12.54902%);fill-opacity:1;" d="M 1429.667969 942.738281 L 1441.835938 918.140625 L 1519.125 918.140625 L 1531.28125 942.738281 L 1584.792969 942.738281 L 1480.480469 741.605469 L 1376.15625 942.738281 Z M 1480.480469 834.878906 L 1501.824219 878.402344 L 1459.125 878.402344 Z M 1480.480469 834.878906 "/>
</g>
</svg>
